<svg class="svg-canvas" viewBox="0 0 800 600" width="1600" height="1200" preserveAspectRatio="none" version="1.1" xmlns="http://www.w3.org/2000/svg" xmlns:xlink="http://www.w3.org/1999/xlink">
      <!--滤镜-->
      <defs></defs>
    
      <!-- 背景 -->
      <g id="background">
          <rect x="0" y="0" fill="#06091b" width="800" height="600"></rect>
          
        </g>
    
      <!--元素-->
      
              <g id="shape_DkpHVn25Kv" ref="shape_DkpHVn25Kv" key="shape_DkpHVn25Kv" mask="">
                <g transform="translate(-271.394376400931,-217.52678058211563) rotate(0,671.3943764009309,517.5267805821156) scale(1,1)" style="opacity: 1;" filter="">
                  <!--普通元素-->
                  <svg xmlns="http://www.w3.org/2000/svg" version="1.1" xmlns:xlink="http://www.w3.org/1999/xlink" width="1342.788752801862" height="1035.0535611642313" viewBox="0 0 802.87577511278 618.8757751127799" data-ligature="true" data-parent="shape_DkpHVn25Kv"><g data-role="text" data-width="286.44606445312496" data-height="103" transform="translate(258.2148553298275, 257.93788755638997)"><path d="M53.57-53.61L53.57-53.61L53.57-53.61Q53.57-56.34 51.66-58.25Q49.75-60.16 47.06-60.16L47.06-60.16Q44.33-60.16 42.44-58.25Q40.56-56.34 40.56-53.61L40.56-53.61Q40.56-50.97 42.44-49.06Q44.33-47.15 47.06-47.15L47.06-47.15Q49.75-47.15 51.66-49.06Q53.57-50.97 53.57-53.61ZM45.30-43.03L45.30-43.03L45.30-43.03Q47.40-42.11 48.22-40.11Q49.04-38.12 48.20-35.98L48.20-35.98Q43.45-25.40 32.45-22.59L32.45-22.59L32.45-5.42Q32.45-3.19 30.88-1.60Q29.30 0 27.12 0L27.12 0Q24.85 0 23.28-1.60Q21.70-3.19 21.70-5.42L21.70-5.42L21.70-22.59Q14.02-24.52 9.11-30.63Q4.20-36.73 4.20-44.80L4.20-44.80Q4.20-44.88 4.20-44.92L4.20-44.92Q4.20-44.96 4.20-45.01L4.20-45.01Q4.20-45.05 4.20-45.09L4.20-45.09Q4.20-45.13 4.20-45.22L4.20-45.22L4.20-53.28Q4.20-55.46 5.77-57.03Q7.35-58.61 9.61-58.61L9.61-58.61Q11.80-58.61 13.37-57.03Q14.95-55.46 14.95-53.28L14.95-53.28L14.95-45.22Q14.95-45.13 14.95-45.09L14.95-45.09Q14.95-45.05 14.95-45.01L14.95-45.01Q14.95-44.96 14.95-44.92L14.95-44.92Q14.95-44.88 14.95-44.80L14.95-44.80Q14.95-39.76 18.51-36.23Q22.08-32.70 27.08-32.70L27.08-32.70Q34.43-32.70 38.25-40.14L38.25-40.14Q39.21-42.23 41.18-43.05Q43.16-43.87 45.30-43.03Z" transform="translate(0 78) " fill="rgb(255, 255, 255)" stroke="rgb(255, 255, 255)" stroke-width="0.143" data-glyph-w="52.855869140625" data-glyph-h="89.59048828125" data-glyph-ascender="72.0418359375" data-glyph-descender="-17.54865234375" data-kerning="0"></path><path d="M38.29-50.38L38.29-50.38L38.29-50.38Q40.35-50.38 41.79-48.93Q43.24-47.48 43.24-45.47L43.24-45.47L43.24-16.92Q43.24-9.91 37.49-4.91L37.49-4.91Q31.78 0 23.72 0L23.72 0Q15.66 0 9.91-4.91L9.91-4.91Q4.16-9.91 4.16-16.92L4.16-16.92L4.16-45.47Q4.16-47.48 5.60-48.93Q7.05-50.38 9.11-50.38L9.11-50.38Q11.13-50.38 12.57-48.93Q14.02-47.48 14.02-45.47L14.02-45.47L14.02-16.92Q14.02-14.02 16.83-12.01L16.83-12.01Q19.69-9.87 23.72-9.87L23.72-9.87Q27.75-9.87 30.56-12.01L30.56-12.01Q33.38-14.02 33.38-16.92L33.38-16.92L33.38-45.47Q33.38-47.48 34.82-48.93Q36.27-50.38 38.29-50.38Z" transform="translate(52.855869140625 78) " fill="rgb(255, 255, 255)" stroke="rgb(255, 255, 255)" stroke-width="0.143" data-glyph-w="47.440136718750004" data-glyph-h="89.59048828125" data-glyph-ascender="72.0418359375" data-glyph-descender="-17.54865234375" data-kerning="0"></path><path d="M43.03-50.38L43.03-50.38L43.03-50.38Q45.55-50.38 47.19-48.15L47.19-48.15Q48.62-45.97 47.69-43.49L47.69-43.49L31.99-4.66Q29.68 0 25.06 0L25.06 0Q20.49 0 18.18-4.66L18.18-4.66L2.48-43.49Q1.55-45.97 2.98-48.15L2.98-48.15Q4.62-50.38 7.14-50.38L7.14-50.38Q10.20-50.38 11.80-47.23L11.80-47.23L25.06-14.32L38.37-47.23Q39.93-50.38 43.03-50.38L43.03-50.38Z" transform="translate(100.29600585937501 78) " fill="rgb(255, 255, 255)" stroke="rgb(255, 255, 255)" stroke-width="0.143" data-glyph-w="50.294941406250004" data-glyph-h="89.59048828125" data-glyph-ascender="72.0418359375" data-glyph-descender="-17.54865234375" data-kerning="0"></path><path d="M27.29-50.38L27.29-50.38L27.29-50.38Q37.66-50.38 45.09-42.99L45.09-42.99Q52.44-35.56 52.44-25.15L52.44-25.15Q52.44-14.74 45.09-7.35L45.09-7.35Q37.66 0.04 27.29 0.04L27.29 0.04Q16.88 0.04 9.45-7.35L9.45-7.35Q2.06-14.74 2.06-25.15L2.06-25.15Q2.06-35.56 9.45-42.99L9.45-42.99Q16.88-50.38 27.29-50.38ZM42.70-25.15L42.70-25.15L42.70-25.15Q42.70-31.53 38.20-36.06L38.20-36.06Q33.63-40.60 27.29-40.60L27.29-40.60Q20.87-40.60 16.33-36.06L16.33-36.06Q11.80-31.53 11.80-25.15L11.80-25.15Q11.80-18.77 16.33-14.23L16.33-14.23Q20.87-9.70 27.29-9.70L27.29-9.70Q33.63-9.70 38.20-14.23L38.20-14.23Q42.70-18.77 42.70-25.15Z" transform="translate(150.590947265625 78) " fill="rgb(255, 255, 255)" stroke="rgb(255, 255, 255)" stroke-width="0.143" data-glyph-w="54.619130859375005" data-glyph-h="89.59048828125" data-glyph-ascender="72.0418359375" data-glyph-descender="-17.54865234375" data-kerning="0"></path><path d="M18.93-48.53L18.93-48.53L18.93-48.53Q18.93-51.39 16.92-53.40Q14.90-55.42 12.05-55.42L12.05-55.42Q9.19-55.42 7.18-53.40Q5.16-51.39 5.16-48.53L5.16-48.53Q5.16-45.68 7.18-43.66Q9.19-41.65 12.05-41.65L12.05-41.65Q14.90-41.65 16.92-43.66Q18.93-45.68 18.93-48.53ZM52.77-54.16L52.77-54.16L52.77-54.16Q55.16-54.16 56.89-52.44Q58.61-50.71 58.61-48.28L58.61-48.28L58.61-5.96Q58.61-3.53 56.89-1.81Q55.16-0.08 52.77-0.08L52.77-0.08Q50.59-0.08 48.99-1.45Q47.40-2.81 46.98-4.91L46.98-4.91Q40.09 0 31.40 0L31.40 0Q20.15 0 12.17-7.98Q4.20-15.95 4.20-27.20L4.20-27.20Q4.20-30.48 4.95-33.67L4.95-33.67Q5.63-36.06 7.62-37.28Q9.61-38.50 12.05-37.99L12.05-37.99Q14.48-37.32 15.70-35.33Q16.92-33.33 16.37-30.90L16.37-30.90Q15.95-29.05 15.95-27.20L15.95-27.20Q15.95-20.78 20.49-16.25Q25.02-11.71 31.40-11.71L31.40-11.71Q37.83-11.71 42.36-16.25Q46.89-20.78 46.89-27.20L46.89-27.20Q46.89-33.59 42.36-38.12Q37.83-42.65 31.40-42.65L31.40-42.65Q30.19-42.65 28.97-42.49L28.97-42.49Q26.49-42.15 24.58-43.51Q22.67-44.88 22.25-47.36L22.25-47.36Q21.91-49.83 23.28-51.72Q24.64-53.61 27.12-54.07L27.12-54.07Q29.26-54.41 31.40-54.41L31.40-54.41Q40.09-54.41 47.02-49.50L47.02-49.50Q47.48-51.51 49.06-52.83Q50.63-54.16 52.77-54.16Z" transform="translate(205.210078125 78) " fill="rgb(255, 255, 255)" stroke="rgb(255, 255, 255)" stroke-width="0.143" data-glyph-w="62.805703125" data-glyph-h="89.59048828125" data-glyph-ascender="72.0418359375" data-glyph-descender="-17.54865234375" data-kerning="0"></path><path d="M9.24-50.38L9.24-50.38L9.24-50.38Q11.29-50.38 12.76-48.91Q14.23-47.44 14.23-45.38L14.23-45.38L14.23-5.04Q14.23-2.94 12.76-1.47Q11.29 0 9.24 0L9.24 0Q7.14 0 5.67-1.47Q4.20-2.94 4.20-5.04L4.20-5.04L4.20-45.38Q4.20-47.44 5.67-48.91Q7.14-50.38 9.24-50.38Z" transform="translate(268.01578125 78) " fill="rgb(255, 255, 255)" stroke="rgb(255, 255, 255)" stroke-width="0.143" data-glyph-w="18.430283203125" data-glyph-h="89.59048828125" data-glyph-ascender="72.0418359375" data-glyph-descender="-17.54865234375" data-kerning="0"></path></g></svg>
                </g>
              </g>
    </svg>